<?xml version="1.0" encoding="utf-8"?>
<!-- Svg Vector Icons : http://www.onlinewebfonts.com/icon -->
<!DOCTYPE svg PUBLIC "-//W3C//DTD SVG 1.1//EN" "http://www.w3.org/Graphics/SVG/1.1/DTD/svg11.dtd">
<svg version="1.1" xmlns="http://www.w3.org/2000/svg" xmlns:xlink="http://www.w3.org/1999/xlink" x="0px" y="0px" viewBox="0 0 1000 1000" enable-background="new 0 0 1000 1000" xml:space="preserve">
<metadata> Svg Vector Icons : http://www.onlinewebfonts.com/icon </metadata>
<g><path d="M500,990c-66.1,0-130.3-13-190.7-38.5c-58.4-24.7-110.8-60-155.7-105c-45-45-80.3-97.4-105-155.7C23,630.3,10,566.1,10,500c0-66.1,13-130.3,38.5-190.7c24.7-58.4,60-110.8,105-155.7c45-45,97.4-80.3,155.7-105C369.7,23,433.9,10,500,10s130.3,13,190.7,38.5c58.4,24.7,110.8,60,155.7,105c45,45,80.3,97.4,105,155.7C977,369.7,990,433.9,990,500c0,66.1-13,130.3-38.5,190.7c-24.7,58.3-60,110.8-105,155.7c-45,45-97.4,80.3-155.7,105C630.3,977,566.1,990,500,990z M500,49.1C251.4,49.1,49.1,251.4,49.1,500S251.4,950.9,500,950.9c248.6,0,450.9-202.3,450.9-450.9C950.9,251.4,748.6,49.1,500,49.1z"/><path d="M662.2,806.4H334.8c-10.8,0-19.5-8.8-19.5-19.5l0,0c0-10.8,8.8-19.5,19.5-19.5h327.3c10.8,0,19.5,8.7,19.5,19.5l0,0C681.7,797.6,673,806.4,662.2,806.4z"/><path d="M657.2,511.5c-7.6-7.6-20-7.6-27.6,0l-112,112V179.1c0-10.8-8.8-19.5-19.5-19.5c-10.8,0-19.5,8.7-19.5,19.5v444.4l-112-112c-7.6-7.6-20-7.6-27.6,0c-7.6,7.6-7.6,20,0,27.6L484,684.3c3.9,3.9,8.9,5.8,14,5.7c5.1,0,10.1-1.9,14-5.7l145.2-145.2C664.8,531.5,664.8,519.1,657.2,511.5z"/></g>
</svg>