<svg version="1.0" xmlns="http://www.w3.org/2000/svg"
viewBox="0 0 512.000000 512.000000"
 preserveAspectRatio="xMidYMid meet">

<g transform="translate(0.000000,512.000000) scale(0.100000,-0.100000)">
<path d="M2355 5110 c-509 -43 -1010 -244 -1401 -560 -101 -82 -302 -282 -384
-384 -165 -204 -329 -495 -418 -742 -193 -534 -199 -1132 -15 -1684 78 -236
287 -625 366 -684 40 -30 144 -30 183 0 54 39 69 70 69 137 0 59 -3 67 -62
157 -235 364 -354 769 -354 1210 0 499 149 942 455 1350 81 108 268 301 371
382 338 266 718 425 1141 478 134 17 416 14 552 -5 504 -72 969 -311 1316
-676 426 -447 655 -1082 607 -1680 -29 -353 -124 -666 -291 -958 -177 -310
-485 -623 -787 -801 -398 -236 -846 -344 -1285 -311 -385 28 -742 144 -1047
340 -51 33 -109 65 -128 72 -110 36 -225 -63 -209 -179 9 -65 28 -88 136 -160
276 -182 610 -314 943 -371 741 -128 1474 61 2054 528 127 102 339 320 431
443 267 356 429 746 498 1198 26 163 25 539 0 705 -23 150 -83 391 -131 521
-45 123 -167 374 -231 474 -147 231 -398 511 -595 663 -360 277 -771 453
-1205 516 -160 24 -434 33 -579 21z"/>
<path d="M2407 4160 c-206 -37 -383 -134 -533 -292 -349 -370 -330 -951 42
-1312 l64 -62 -62 -30 c-117 -54 -269 -164 -373 -269 -113 -112 -189 -215
-263 -355 -83 -155 -163 -426 -148 -503 20 -104 132 -164 229 -123 39 16 85
67 93 104 61 273 129 422 268 584 324 379 900 491 1348 263 294 -150 504 -414
580 -725 11 -47 25 -101 29 -121 12 -46 75 -106 123 -115 84 -15 172 38 194
118 22 81 -46 328 -143 516 -92 180 -247 364 -409 486 -75 56 -262 166 -283
166 -7 0 -13 2 -13 4 0 2 30 33 66 68 117 112 211 273 256 440 20 71 23 106
22 238 -1 137 -4 165 -27 245 -96 321 -350 573 -662 656 -89 24 -313 34 -398
19z m297 -340 c176 -45 320 -158 396 -312 91 -186 91 -360 -1 -547 -50 -102
-144 -201 -239 -254 -190 -105 -429 -102 -610 8 -116 70 -216 193 -260 318
-31 87 -38 258 -15 346 41 158 165 317 302 389 133 70 286 88 427 52z"/>
</g>
</svg>
