<?xml version="1.0" standalone="no"?>
<svg version="1.0" xmlns="http://www.w3.org/2000/svg"
viewBox="0 0 780.000000 981.000000"
 preserveAspectRatio="xMidYMid meet">

<g transform="translate(0.000000,981.000000) scale(0.100000,-0.100000)">
<path d="M3650 9800 c-326 -40 -634 -164 -900 -361 -102 -76 -280 -246 -363
-349 -244 -301 -410 -694 -461 -1091 -21 -156 -21 -432 0 -588 49 -377 195
-739 422 -1041 69 -93 233 -263 328 -341 257 -210 567 -352 889 -405 145 -25
427 -24 570 0 287 48 548 157 790 328 105 74 301 260 387 367 246 304 409 691
463 1095 24 179 17 521 -14 686 -85 453 -284 840 -589 1147 -284 287 -638 472
-1027 539 -109 18 -392 26 -495 14z"/>
<path d="M1185 5479 c-135 -10 -310 -35 -390 -55 -33 -9 -98 -36 -145 -61
-361 -194 -535 -434 -616 -853 -24 -126 -28 -680 -14 -1885 14 -1241 23 -1592
45 -1695 67 -312 247 -602 465 -750 85 -58 211 -116 305 -141 138 -37 276 -37
2210 2 314 7 572 14 574 16 3 2 -1633 5357 -1657 5421 -3 9 -79 12 -336 11
-182 -1 -380 -6 -441 -10z"/>
<path d="M5827 5444 c-45 -140 -1647 -5374 -1647 -5381 0 -15 2238 -59 2520
-50 203 6 295 25 427 87 300 140 522 444 604 825 25 113 34 444 49 1671 13
1110 13 1655 -1 1785 -46 458 -214 738 -571 950 -112 67 -151 83 -252 103
-177 37 -319 47 -717 53 l-397 5 -15 -48z m1171 -3314 c67 -41 95 -123 67
-195 -19 -52 -61 -90 -113 -105 -25 -8 -254 -10 -727 -8 l-690 3 -35 22 c-53
33 -83 93 -78 155 6 55 28 92 78 126 l33 22 716 0 c697 0 717 -1 749 -20z"/>
<path d="M3405 4760 c-267 -249 -484 -457 -482 -464 3 -7 219 -717 481 -1578
262 -862 480 -1577 485 -1589 8 -22 9 -22 19 11 30 93 944 3138 948 3160 5 23
-42 70 -471 465 -263 242 -481 441 -485 443 -5 2 -227 -200 -495 -448z"/>
</g>
</svg>
